<svg xmlns="http://www.w3.org/2000/svg" viewBox="0 0 112 50">
    <path fill-rule="evenodd" clip-rule="evenodd" d="M32.6209 11.8985C31.4575 9.11818 30.1234 7.51724 27.6741 6.38349C26.1838 5.69361 26.3545 4.65145 26.505 3.73193C26.6019 3.1403 26.6905 2.59945 26.3229 2.23587C25.2221 1.14769 24.0302 2.30139 23.6234 2.93094C22.733 4.26125 20.8129 3.99348 20.5654 2.42103C19.274 -1.36196 16.5232 2.30993 15.2858 4.10173C10.6747 6.20972 4.21174 9.73349 0.991635 14.3511C0.439779 15.143 0.200831 16.1116 0.28617 17.0716C1.20783 15.7299 3.56601 13.0806 4.38811 12.4397C4.46376 12.3804 4.54923 12.3132 4.64357 12.2389L4.64377 12.2388C7.04 10.3526 15.1586 3.96236 13.5119 10.1624C8.59239 21.5195 10.4839 23.9679 12.1988 26.1878C13.2927 27.6038 14.3147 28.9268 13.4517 32.4094C6.63053 27.4699 5.97954 19.8501 8.39462 13.4749C0.632641 18.6495 4.51363 30.9981 11.9228 34.5263C10.5115 38.5249 7.57138 35.3495 6.16011 32.9974C6.16011 32.9974 6.39532 35.9376 10.6178 40.1085C11.5318 41.064 11.5305 42.5546 11.5291 44.2619C11.5277 45.8173 11.5262 47.5526 12.2165 49.227C12.2165 49.227 14.8734 42.5327 15.4195 37.1288C15.8128 33.2367 17.3569 31.6467 19.444 29.4974C20.4212 28.491 21.5175 27.3621 22.6705 25.8169C24.7576 23.0197 26.4712 24.013 28.2322 25.0337C29.5217 25.7812 30.8366 26.5434 32.3422 25.8425C33.9959 25.0463 34.4339 23.8545 34.9016 22.5819C35.2721 21.5736 35.6613 20.5146 36.6887 19.5613C38.6958 17.1807 36.4115 15.3387 34.5227 13.8157C33.6542 13.1154 32.8693 12.4824 32.6238 11.8956L32.6209 11.8985ZM32.6778 16.9007C35.9406 20.695 33.3378 24.0849 29.7393 21.8032C30.661 21.7633 31.6538 21.5268 31.998 21.0625C29.3712 20.7324 27.5283 20.0028 25.7264 19.2894C24.5896 18.8393 23.4691 18.3957 22.1783 18.0629C20.148 17.5692 21.0032 19.7086 21.7504 21.5777C22.0636 22.3614 22.3579 23.0975 22.4125 23.5722C17.5804 22.422 18.5747 18.7475 19.5384 15.1861C20.0569 13.27 20.5666 11.3866 20.1552 9.94669C19.7937 10.317 19.4611 10.6098 19.1584 10.8762L19.1583 10.8762L19.1583 10.8763C18.3877 11.5546 17.8118 12.0616 17.4503 13.2396C17.0116 14.6692 16.9569 17.5467 16.9032 20.3749C16.8509 23.1309 16.7994 25.8402 16.3943 27.1171C12.1928 22.1149 14.8847 13.8583 16.1591 10.4969C16.4243 9.68726 17.4575 9.13877 18.4362 8.6192C19.3995 8.10777 20.31 7.62438 20.3834 6.94752C17.3596 7.7195 17.0353 3.60606 18.9497 2.3726C19.171 2.65436 19.4372 3.33888 19.7054 4.02837C20.2885 5.52781 20.8807 7.05078 21.0405 4.50623C22.605 4.58884 23.9562 5.38646 25.5208 6.5658C25.3766 6.94128 25.2672 7.22347 25.155 7.5128L25.1548 7.51346L25.154 7.51534L25.1535 7.51681L25.1531 7.5177L25.1527 7.51887C25.0554 7.76978 24.9559 8.0266 24.8295 8.35474C25.6625 7.96562 26.1199 7.57083 26.3901 7.33761C26.5568 7.19373 26.6523 7.11134 26.7207 7.1297C26.8124 7.15431 26.8555 7.3598 26.9565 7.84063C27.0255 8.16944 27.1216 8.627 27.2787 9.24352L27.3554 9.0373L27.3554 9.03723C27.4615 8.75197 27.5791 8.43551 27.7481 7.97588L27.8957 8.08935C29.3269 9.18917 30.3221 9.95392 30.8118 11.5766C31.2373 12.9909 32.4552 13.9724 33.6704 14.9518C34.5185 15.6353 35.3653 16.3178 35.9406 17.1456C36.2962 17.6555 35.8979 17.9347 35.1982 17.7353C34.9427 17.6628 34.6675 17.5175 34.381 17.3662C33.8348 17.0778 33.2479 16.768 32.6807 16.9007H32.6778ZM45.5213 23.6631C47.2821 25.378 49.4355 26.2354 51.9786 26.2354C54.5217 26.2354 56.6751 25.378 58.4103 23.6631C60.1711 21.9254 61.0529 19.7918 61.0529 17.2708C61.0529 14.7497 60.1711 12.6189 58.4103 10.9041C56.6751 9.16638 54.5217 8.30894 51.9786 8.30894C49.4355 8.30894 47.2821 9.16638 45.5213 10.9041C43.7833 12.6161 42.9043 14.7469 42.9043 17.2708C42.9043 19.7947 43.7861 21.9254 45.5213 23.6631ZM54.9626 20.259C54.1803 21.0424 53.1762 21.4355 51.9786 21.4355C50.7782 21.4355 49.7769 21.0424 48.969 20.259C48.1867 19.45 47.7942 18.47 47.7942 17.2708C47.7942 16.0715 48.1867 15.0915 48.969 14.3082C49.7769 13.502 50.781 13.1089 51.9786 13.1089C53.1762 13.1089 54.1803 13.4992 54.9626 14.3082C55.7676 15.0915 56.1602 16.0715 56.1602 17.2708C56.1602 18.47 55.7705 19.45 54.9626 20.259ZM76.5849 8.69942H71.6921V16.536L66.3101 8.69942H62.3959V25.8454H67.2887V18.0088L72.6707 25.8454H76.5849V8.69942ZM83.4311 21.3388H89.7888V25.8454H78.5384V8.69942H89.6665V13.1575H83.4311V15.0177H89.0549V19.4274H83.4311V21.3388ZM42.2921 28.5909L47.7453 45.7368H47.7481H53.2269L58.68 28.5909H53.3008L50.4875 39.4898L47.6742 28.5909H42.2921ZM66.8977 46.1278C64.3546 46.1278 62.2012 45.2703 60.4404 43.5555C58.7052 41.8178 57.8233 39.687 57.8233 37.1631C57.8233 34.6392 58.7023 32.5085 60.4404 30.7964C62.2012 29.0588 64.3546 28.2013 66.8977 28.2013C69.4408 28.2013 71.5941 29.0588 73.3294 30.7964C75.0902 32.5113 75.972 34.6421 75.972 37.1631C75.972 39.6842 75.0902 41.8178 73.3294 43.5555C71.5941 45.2703 69.4408 46.1278 66.8977 46.1278ZM66.8977 41.3278C68.0953 41.3278 69.0994 40.9347 69.8817 40.1513C70.6895 39.3423 71.0793 38.3624 71.0793 37.1631C71.0793 35.9639 70.6867 34.9839 69.8817 34.2005C69.0994 33.3915 68.0953 33.0013 66.8977 33.0013C65.7001 33.0013 64.6959 33.3944 63.8881 34.2005C63.1058 34.9839 62.7132 35.9639 62.7132 37.1631C62.7132 38.3624 63.1058 39.3423 63.8881 40.1513C64.6959 40.9347 65.6972 41.3278 66.8977 41.3278ZM82.2105 28.5909H77.3178V45.7368H82.2105V28.5909ZM86.0961 43.5583C84.4093 41.8434 83.553 39.7127 83.553 37.166C83.553 34.6193 84.4093 32.4885 86.0961 30.7736C87.783 29.0588 89.9364 28.2013 92.5051 28.2013C95.6597 28.2013 98.5214 29.8165 100.015 32.366L95.7593 34.8158C95.1961 33.7134 93.9501 33.0041 92.5051 33.0041C91.3075 33.0041 90.3289 33.3972 89.5694 34.1806C88.8127 34.964 88.4429 35.9695 88.4429 37.1688C88.4429 38.3681 88.8099 39.3737 89.5694 40.157C90.3289 40.9404 91.3046 41.3335 92.5051 41.3335C93.9729 41.3335 95.1961 40.647 95.7593 39.4962L100.015 41.946C98.5243 44.5183 95.6626 46.1335 92.5051 46.1335C89.9364 46.1335 87.7858 45.276 86.0961 43.5612V43.5583ZM112 41.2303H105.642V39.3188H111.266V34.9092H105.642V33.049H111.878V28.5909H100.75V45.7368H112V41.2303ZM2.42904 29.5825C1.62531 27.5395 0.816243 25.4828 0.729652 23.2421C-0.988861 26.5879 0.661589 30.08 2.25139 33.4437C2.92473 34.8683 3.58719 36.27 3.97821 37.6277C4.4567 34.7368 3.44716 32.1706 2.42904 29.5825ZM23.6489 10.3344C23.979 10.8587 24.2147 11.46 24.4471 12.0532C25.0761 13.6581 25.6818 15.2038 28.0723 15.0062C26.7712 17.6329 25.1382 15.7626 23.7728 14.1989L23.7727 14.1989C23.6426 14.0498 23.5148 13.9035 23.3901 13.7642C23.3792 15.0759 23.371 16.1573 23.3628 17.2229L23.3628 17.2251L23.3628 17.2259L23.3616 17.3791C19.7746 16.7495 21.9336 12.1348 23.6489 10.3344ZM29.7712 13.5735C28.2892 8.93017 25.2426 10.5567 25.2426 10.5567C25.2426 10.5567 25.6038 11.8158 27.1058 12.2716C28.6077 12.7274 29.7712 13.5735 29.7712 13.5735ZM32.2058 19.6184C30.6925 20.0856 29.2446 19.7153 27.8308 18.892C28.9843 18.5716 30.0863 18.9367 31.1888 19.3019C31.5273 19.414 31.8658 19.5261 32.2058 19.6184ZM29.2462 17.8201C30.1906 18.5579 31.1863 18.9139 32.2814 18.5664C32.0472 18.478 31.8156 18.3728 31.584 18.2677C30.8311 17.926 30.0794 17.5848 29.2462 17.8201Z"></path>
</svg>