<?xml version="1.0" encoding="UTF-8" standalone="no"?>
<svg
   viewBox="0 0 800 800"
   version="1.1"
   xmlns="http://www.w3.org/2000/svg">
  <defs>
    <linearGradient
       id="gradient_main"
       x1="176.23"
       y1="304.93"
       x2="676.77"
       y2="304.93"
       gradientUnits="userSpaceOnUse"
       gradientTransform="matrix(0.86956522,0,0,0.8710072,42.173913,40.34681)">
      <stop
         offset="0"
         stop-color="#1cb6da"
         id="stop901" />
      <stop
         offset="1"
         stop-color="#a9c555"
         id="stop903" />
    </linearGradient>
  </defs>
  <rect
     style="fill:#ffffff;fill-opacity:1;stroke:#3eacb2;stroke-width:22.8831;stroke-dasharray:none;stroke-opacity:1"
     id="rect1"
     width="777.11688"
     height="777.11694"
     x="11.441564"
     y="11.441535" />
  <path
     id="body"
     d="m 328.86957,190.42135 c 31.57391,1.08876 62.01739,21.59227 81.03478,37.45331 a 16.921739,16.9498 0 0 1 -3.01739,28.00288 c -2.6087,1.36748 -5.45218,2.9353 -8.59131,4.72957 -38.78261,22.19326 -13.91304,72.97298 -9.35652,82.48438 4.55652,9.5114 6.35652,15.77394 0.73913,22.80297 -7.29565,9.13687 -19.89565,21.39194 -12.55652,25.04146 4.23478,2.09913 20.9913,-28.74324 22.6087,-24.01367 1.61739,4.72957 -18.83479,41.72124 -13.04348,44.60428 10.71304,5.32185 16.06956,-44.22975 21.08695,-42.39192 5.0174,1.83782 6.08696,45.92821 14.07827,45.29237 12.63478,-1.06263 -8.53914,-45.4927 -4.34783,-48.68059 4.1913,-3.18789 25.54783,28.74324 33.15652,24.3882 10.98261,-6.34093 -30.43478,-32.22726 -28.86956,-35.43257 1.56521,-3.20531 29.06087,4.5815 27.73913,-5.88801 -0.4,-3.14434 -9.96522,-3.1966 -17.98261,-2.73496 a 29.095652,29.143901 0 0 1 -25.82609,-12.80381 c -7.82609,-11.63665 -13.53043,-29.34423 2.4,-48.59349 13.54783,-16.36623 30.1913,-14.95519 43.73044,-9.18042 a 34.252174,34.308974 0 0 1 20.55652,36.45166 c -11.53044,77.85062 78.10434,91.13348 78.10434,91.13348 47.25218,-62.45993 2.53044,-108.53621 -20.74782,-124.63242 a 33.434783,33.490227 0 0 1 -14.54783,-28.07256 c 0.0609,-3.12692 1.03479,-5.80962 1.54783,-8.1265 a 12.8,12.821226 0 0 1 0.91304,-2.72625 v 0 c 5.04348,-10.79178 22.43478,-1.52427 27.02609,1.91621 v 0 l 0.57391,0.45293 c 3.71305,3.16175 21.73913,26.6354 19.92174,34.31768 -1.81739,7.68228 -13.33043,21.33097 -8.36522,23.56074 7.13913,3.22273 13.37392,-27.00122 19.46087,-22.01035 6.08696,4.99087 12.74783,41.47737 20.99131,38.14141 9.25217,-3.74533 -18.47826,-36.2339 -13.23478,-41.96513 5.8,-6.34964 33.68695,19.94607 38.54782,12.12442 5.86957,-9.45043 -40,-14.22355 -34.73043,-21.03482 3.22608,-4.18084 40.43478,8.37909 42.52174,1.96847 4.11304,-12.64702 -43.78261,-3.75404 -43.53913,-9.58108 0.24347,-5.82703 28.01739,-4.5902 27.68695,-11.99376 -0.57391,-12.82994 -30.43478,11.47116 -40,6.34964 -10.43478,-5.53961 -14.78261,-30.94689 -20.47826,-41.52092 -4.9913,-9.31106 -19.66956,-11.71504 -32.84348,-11.83698 A 180.9913,181.29144 0 0 0 436,135.28659 v 0 c -1.49565,-0.5226 -3.00869,-1.02778 -4.52174,-1.52426 q -7.51304,-2.43011 -15.28695,-4.20696 a 180.94783,181.24789 0 0 0 -40.17392,-4.50311 c -1.95652,0 -3.89565,0.0523 -5.83478,0.11323 A 180.66957,180.96917 0 0 0 204.09565,250.48601 q -1.15652,3.62339 -2.17391,7.29033 a 181.5913,181.89243 0 0 0 -4.96522,24.86725 q -0.64348,5.02571 -1,10.13853 c -0.0609,0.871 -0.14782,1.74201 -0.2,2.61302 -0.2,3.48403 -0.31304,7.02903 -0.31304,10.58274 A 180.61739,180.91691 0 0 0 376,486.8251 q 7.74783,0 15.31304,-0.65325 C 316.66957,462.24528 260.63478,396.69328 250.38261,316.77837 a 206.45217,206.79453 0 0 1 -1.68696,-25.58149 c 0,-0.28743 0,-0.56615 0,-0.871 q 0,-8.93654 0.75652,-17.68145 c 0.2,-2.37785 0.45218,-4.74699 0.73913,-7.09871 q 0.86957,-7.29033 2.25218,-14.42388 c 16.69565,-8.71007 66.32174,18.60472 73.77391,6.09705 6.64348,-11.17502 -11.4,-49.15093 -17.21739,-60.78759 v 0"
     fill="url(#gradient_main)"
     style="stroke-width:0.870286" />
  <path
     id="under"
     d="M 360.19131,441.24529 A 168.69565,168.9754 0 0 1 303.6,394.75964 a 139.13044,139.36115 0 0 0 63.30435,65.32554 140.73044,140.96381 0 0 0 168.31304,-31.53046 170.17391,170.45611 0 0 1 -175.02608,12.69057 z"
     fill="#009ab1"
     style="stroke-width:0.870286">
    <title
       id="title1">under</title>
  </path>
  <path
     id="back"
     d="M 323.85217,179.93442 A 205.21739,205.5577 0 0 1 501.51304,282.48681 C 493.47826,204.96717 436.51304,141.94109 362.06957,125 a 205.14783,205.48802 0 0 0 -155.6087,91.72577 c 0,0.061 -0.0435,0.13065 -0.0696,0.19162 a 204.26957,204.6083 0 0 1 117.46087,-36.98297 z"
     fill="#fff"
     fill-opacity="0.22"
     style="stroke-width:0.870286" />
  <path
     id="leg-space"
     d="m 259.08696,221.96923 0.17391,-0.2613 a 205.63478,205.97578 0 0 1 60.57391,-87.71043 c -69.69565,22.23682 -121.01739,85.70711 -125.4,161.7983 a 206.23478,206.57678 0 0 1 64.65218,-73.82657 z"
     fill="#3eacb2"
     style="stroke-width:0.870286" />
  <path
     id="tail-high"
     d="m 255.27826,442.04662 a 205.38261,205.72319 0 0 1 3.8087,-220.07739 206.23478,206.57678 0 0 0 -64.65218,73.82657 q -0.31304,5.22604 -0.32174,10.58274 a 180.13044,180.42914 0 0 0 61.16522,135.66808 z"
     fill="#3eacb2"
     style="stroke-width:0.870286" />
  <path
     id="tail-low"
     d="M 247.3913,290.76138 A 205.01739,205.35737 0 0 1 259.2,221.89955 l -0.10435,0.0697 a 205.38261,205.72319 0 0 0 -3.80869,220.07739 179.90435,180.20268 0 0 0 119.41739,45.21398 q 7.73043,0 15.31304,-0.65325 C 307.28696,460.08518 247.3913,382.43489 247.3913,290.76138 Z"
     fill="#009ab1"
     style="stroke-width:0.870286" />
  <path
     id="path920"
     d="m 297.17391,217.30063 c 0.0696,-4.81667 -1.63478,-10.10368 -4.54782,-15.59974 a 204.13044,204.46894 0 0 0 -18.51305,10.06885 c 0,0 -7.66956,4.10244 -9.22608,6.35835 0.8,-0.20904 5.92174,0 6.70434,-0.10452 0.50435,-0.0871 1,-0.18291 1.49566,-0.23517 13.03478,-1.3849 23.93043,11.68891 24.08695,-0.48777 z"
     fill="#fff"
     style="stroke-width:0.870286" />
  <path
     id="T-color"
     d="m 389.17391,548.0482 h -23.52174 v -26.32184 h 85.76522 v 26.32184 h -35.65217 v 102.16914 h -26.59131 z"
     fill="#3eacb2"
     style="stroke-width:0.870286" />
  <path
     id="O"
     d="m 480.57391,644.52095 q -12.26087,-7.98713 -19.13043,-22.78554 -6.86957,-14.79842 -6.94783,-34.39608 0,-19.56282 6.91305,-34.09122 6.91304,-14.5284 19.13043,-22.3152 12.26087,-7.7781 28.21739,-7.78681 15.77392,0 28.02609,7.78681 12.25217,7.7868 19.13043,22.3152 6.89566,14.5284 6.90435,34.09122 0.009,19.56282 -6.90435,34.37866 -6.91304,14.80712 -19.13043,22.78554 -12.21739,7.97843 -28.02609,7.97843 -15.91304,0.0174 -28.18261,-7.96101 z m 48.75653,-10.92243 q 8.84347,-6.54126 13.71304,-18.38696 4.86956,-11.8457 4.86956,-27.87223 0,-15.75652 -4.86956,-27.44544 -4.86957,-11.68891 -13.71304,-18.02113 a 36.695652,36.756504 0 0 0 -41.26087,0 q -8.85218,6.36706 -13.72174,18.03855 -4.86957,11.6715 -4.86087,27.42802 0,15.95685 4.86087,27.91578 4.86087,11.95893 13.81739,18.4218 a 34.339131,34.396074 0 0 0 20.62609,6.46288 33.634783,33.690558 0 0 0 20.53913,-6.54127 z"
     fill="#45546a"
     style="stroke-width:0.870286" />
  <path
     id="N"
     d="m 580.47826,525.44556 h 14.78261 l 48.26087,80.89915 14.01739,25.64245 h 0.77392 l -0.58261,-8.35296 q -0.2,-3.03981 -0.78261,-12.82122 -0.58261,-9.78142 -0.58261,-17.75984 V 525.44556 H 670 v 124.77178 h -14.78261 l -48.26087,-80.89915 -14.01739,-25.64245 h -0.77391 l 0.58261,9.11945 q 1.35652,16.54913 1.36522,29.0568 v 68.36535 h -13.63479 z"
     fill="#45546a"
     style="stroke-width:0.870286" />
  <g
     id="I">
    <path
       id="i-bar"
       d="m 339.46957,568.03781 h 26.66087 v 82.17953 h -26.66087 z"
       fill="#68c5dc"
       style="stroke-width:0.870286" />
    <rect
       id="I-point"
       height="26.339258"
       width="26.686956"
       y="521.64801"
       x="339.46957"
       fill="#68c5dc"
       style="stroke-width:0.870286" />
  </g>
  <path
     id="R"
     d="m 296.43478,648.3621 -31.72174,-53.93277 h -24.13043 v 53.93277 h -14.4 V 523.59031 h 39.13043 q 43.98261,0 43.98261,34.57028 0,14.24097 -7.87826,23.16879 -7.87826,8.92783 -21.89565,11.76731 L 312.8,648.3621 Z m -55.85217,-65.32554 h 22.38261 q 15.55652,0 23.73913,-6.27126 8.18261,-6.27125 8.17391,-18.60471 0,-12.35088 -7.98261,-17.75984 -7.98261,-5.40895 -23.93043,-5.40895 h -22.38261 z"
     fill="#45546a"
     style="stroke-width:0.870286" />
  <path
     id="T"
     d="M 149.31304,535.55795 H 110 v -11.96764 h 92.82609 v 11.96764 H 163.69565 V 648.3621 h -14.38261 z"
     fill="#45546a"
     style="stroke-width:0.870286" />
</svg>
